<svg fill="none" xmlns="http://www.w3.org/2000/svg" viewBox="0 0 60 30">
  <path d="M0 0h60L31.25 30H0V0Z" fill="url(#a)"/>
  <path d="M1.823 13.63c-.487-.934-.627-1.934-.555-2.972.105-.963.474-1.822 1.027-2.607.071-.1.163-.187.246-.28C3.602 6.678 4.926 6.08 6.385 5.738c1.32-.238 2.642-.237 3.968-.062 1.548.253 3.063.62 4.478 1.323.087.044.168.1.252.152l-1.35 2.365c-.152.248-.333.484-.445.749-.148.35-.324.346-.636.194-1.485-.73-3.056-1.066-4.713-.944-.511.037-1.005.158-1.41.499-.458.386-.483.854-.074 1.283.122.127.258.246.406.342.77.5 1.61.846 2.495 1.086.128.05.255.103.385.148.954.328 1.913.64 2.801 1.13 1.2.663 2.174 1.526 2.584 2.897.042.14.014.31.17.437l1.736-4.687c.346-.91.69-1.819 1.04-2.727a.994.994 0 0 0 .077-.405c.083-.024.112-.094.138-.166l.805-2.188.276-.704c.233-.603.232-.603.9-.603 1.358 0 2.715.005 4.071-.004.222-.002.345.052.413.277.098.327.235.64.356.96l.959 2.578c.46 1.375.97 2.734 1.494 4.085l2.09 5.762.065-.026V7.077c.004-.317.017-.634.011-.95-.004-.18.024-.276.243-.274 2.168.013 4.336-.028 6.502.036 1.56.047 3.103.274 4.515 1.031.344.184.64.435.976.627a5.356 5.356 0 0 1 1.574 2.652 9.203 9.203 0 0 1 .15 3.048c-.195 1.164-.632 2.217-1.43 3.103-1.196 1.185-2.672 1.748-4.316 1.938-.05.005-.095.03-.142.046-.963.012-1.925.027-2.888.032-.19.001-.305.02-.302.261.017.975.017 1.95.023 2.924-.006.698-.023 1.395-.012 2.093.004.257-.06.346-.334.345-2.692-.01-5.383-.012-8.075.002-.234.002-.306-.1-.358-.273-.21-.706-.422-1.41-.623-2.118-.062-.22-.128-.293-.389-.219a9.905 9.905 0 0 1-5.555-.016c-.238-.068-.328-.04-.405.205-.23.732-.498 1.451-.731 2.183-.052.163-.114.231-.282.231-1.673-.003-3.347-.001-5.06-.001l.47-1.321c-.134-.073-.188-.002-.244.04-1.764 1.341-3.79 1.687-5.937 1.558-1.545-.092-3.027-.456-4.459-1.043-.406-.166-.783-.385-1.173-.578-.108-.053-.207-.103-.168-.25.579-1.02 1.064-2.088 1.577-3.142.12-.245.204-.294.45-.143 1.434.883 2.993 1.308 4.683 1.22.483-.025.963-.08 1.394-.32.701-.391.93-1.182.516-1.751-.27-.4-.694-.587-1.119-.741-1.01-.368-2.03-.704-3.044-1.064-.345-.122-.678-.277-1.017-.417-.67-.358-1.334-.72-1.91-1.224-.392-.342-.71-.75-1.004-1.178Zm19.224 1.22c-.251.768-.5 1.539-.757 2.307-.065.195.01.266.188.321a5.437 5.437 0 0 0 3.22.003c.167-.05.22-.111.161-.29-.248-.758-.482-1.52-.723-2.28l-1.009-3.306-.085.016-.995 3.228Zm13.582-3.658c-.005.976-.006 1.951-.02 2.927-.003.203.072.26.266.258.633-.007 1.269.019 1.899-.068 1.59-.217 2.55-1.223 2.076-3.117-.239-.792-.844-1.162-1.585-1.365-.805-.22-1.631-.144-2.45-.159-.18-.003-.206.09-.203.236.009.43.012.859.017 1.288Z" fill="#fff"/>
  <defs>
    <linearGradient id="a" x1="15.625" y1="0" x2="15.625" y2="30" gradientUnits="userSpaceOnUse">
      <stop stop-color="#2BA7E7"/>
      <stop offset=".49" stop-color="#145FAD"/>
      <stop offset="1" stop-color="#274494"/>
    </linearGradient>
  </defs>
</svg>